<?plantuml 1.2026.1?><svg xmlns="http://www.w3.org/2000/svg" xmlns:xlink="http://www.w3.org/1999/xlink" contentStyleType="text/css" data-diagram-type="ACTIVITY" preserveAspectRatio="none" version="1.1" viewBox="0 0 6525 14387" zoomAndPan="magnify"><defs/><g><ellipse cx="1485.3459" cy="250" fill="#222222" rx="125" ry="125" style="stroke:#222222;stroke-width:12.5;"/><rect fill="#E8EEF7" height="3463.5956" rx="125" ry="125" style="stroke:#000000;stroke-width:18.75;" width="2401.6933" x="284.4993" y="500"/><path d="M1809.9946,500 L1809.9946,865.8989 L1684.9946,990.8989 L284.4993,990.8989" fill="none" style="stroke:#000000;stroke-width:18.75;"/><text fill="#000000" font-family="'Arial, Helvetica, sans-serif'" font-size="175" lengthAdjust="spacing" textLength="1200.4953" x="421.9993" y="815.4991">Phase 1: Setup</text><rect fill="#F1F1F1" height="703.3989" rx="125" ry="125" style="stroke:#181818;stroke-width:6.25;" width="1330.9467" x="819.8726" y="1203.3989"/><text fill="#000000" font-family="'Arial, Helvetica, sans-serif'" font-size="175" lengthAdjust="spacing" textLength="880.9467" x="1044.8726" y="1631.398">specify init</text><rect fill="#F1F1F1" height="703.3989" rx="125" ry="125" style="stroke:#181818;stroke-width:6.25;" width="2151.6933" x="409.4993" y="2156.7978"/><text fill="#000000" font-family="'Arial, Helvetica, sans-serif'" font-size="175" lengthAdjust="spacing" textLength="1701.6933" x="634.4993" y="2584.7969">/speckit.constitution</text><rect fill="#F1F1F1" height="703.3989" rx="125" ry="125" style="stroke:#181818;stroke-width:6.25;" width="2129.4683" x="420.6118" y="3110.1967"/><text fill="#000000" font-family="'Arial, Helvetica, sans-serif'" font-size="175" lengthAdjust="spacing" textLength="1679.4683" x="645.6118" y="3538.1958">/speckit.instructions</text><rect fill="#EFE8F7" height="2804.4945" rx="125" ry="125" style="stroke:#000000;stroke-width:18.75;" width="4840.2113" x="508.6735" y="4088.5956"/><path d="M3285.2388,4088.5956 L3285.2388,4454.4945 L3160.2388,4579.4945 L508.6735,4579.4945" fill="none" style="stroke:#000000;stroke-width:18.75;"/><text fill="#000000" font-family="'Arial, Helvetica, sans-serif'" font-size="175" lengthAdjust="spacing" textLength="2451.5654" x="646.1735" y="4404.0947">Phase 2: Customize (Optional)</text><path d="M2587.0184,4704.4945 L2587.0184,5197.0928 L2337.0184,5247.0928 L2587.0184,5297.0928 L2587.0184,5789.6912 A0,0 0 0 0 2587.0184,5789.6912 L5223.8848,5789.6912 A0,0 0 0 0 5223.8848,5789.6912 L5223.8848,4829.4945 L5098.8848,4704.4945 L2587.0184,4704.4945 A0,0 0 0 0 2587.0184,4704.4945" fill="#FEFFDD" style="stroke:#181818;stroke-width:6.25;"/><path d="M5098.8848,4704.4945 L5098.8848,4829.4945 L5223.8848,4829.4945 L5098.8848,4704.4945" fill="#FEFFDD" style="stroke:#181818;stroke-width:6.25;"/><text fill="#000000" font-family="'Arial, Helvetica, sans-serif'" font-size="175" lengthAdjust="spacing" textLength="1676.4931" x="2762.0184" y="5069.9936">generate role agents</text><text fill="#000000" font-family="'Arial, Helvetica, sans-serif'" font-size="175" lengthAdjust="spacing" textLength="2174.3664" x="2762.0184" y="5323.3925">create-agent / create-skills</text><text fill="#000000" font-family="'Arial, Helvetica, sans-serif'" font-size="175" lengthAdjust="spacing" textLength="1643.0685" x="2762.0184" y="5576.7914">(custom definitions)</text><rect fill="#F1F1F1" height="703.3989" rx="125" ry="125" style="stroke:#181818;stroke-width:6.25;" width="1703.3449" x="633.6735" y="4895.3934"/><text fill="#000000" font-family="'Arial, Helvetica, sans-serif'" font-size="175" lengthAdjust="spacing" textLength="1253.3449" x="858.6735" y="5323.3925">/speckit.agents</text><rect fill="#F1F1F1" height="703.3989" rx="125" ry="125" style="stroke:#181818;stroke-width:6.25;" width="1562.4704" x="704.1107" y="6039.6912"/><text fill="#000000" font-family="'Arial, Helvetica, sans-serif'" font-size="175" lengthAdjust="spacing" textLength="1112.4704" x="929.1107" y="6467.6903">/speckit.skills</text><rect fill="#E8F3EC" height="6708.989" rx="125" ry="125" style="stroke:#000000;stroke-width:18.75;" width="6260.3306" x="137.5" y="7018.0901"/><path d="M2704.2408,7018.0901 L2704.2408,7383.989 L2579.2408,7508.989 L137.5,7508.989" fill="none" style="stroke:#000000;stroke-width:18.75;"/><text fill="#000000" font-family="'Arial, Helvetica, sans-serif'" font-size="175" lengthAdjust="spacing" textLength="2241.7408" x="275" y="7333.5892">Phase 3: Core Development</text><rect fill="#F1F1F1" height="703.3989" rx="125" ry="125" style="stroke:#181818;stroke-width:6.25;" width="1928.9192" x="520.8863" y="7721.489"/><text fill="#000000" font-family="'Arial, Helvetica, sans-serif'" font-size="175" lengthAdjust="spacing" textLength="1478.9192" x="745.8863" y="8149.4881">1. /speckit.feature</text><path d="M2958.1919,8549.8878 L2958.1919,9042.4862 L2708.1919,9092.4862 L2958.1919,9142.4862 L2958.1919,9635.0845 A0,0 0 0 0 2958.1919,9635.0845 L6272.8306,9635.0845 A0,0 0 0 0 6272.8306,9635.0845 L6272.8306,8674.8878 L6147.8306,8549.8878 L2958.1919,8549.8878 A0,0 0 0 0 2958.1919,8549.8878" fill="#FEFFDD" style="stroke:#181818;stroke-width:6.25;"/><path d="M6147.8306,8549.8878 L6147.8306,8674.8878 L6272.8306,8674.8878 L6147.8306,8549.8878" fill="#FEFFDD" style="stroke:#181818;stroke-width:6.25;"/><text fill="#000000" font-family="'Arial, Helvetica, sans-serif'" font-size="175" lengthAdjust="spacing" textLength="1924.9924" x="3133.1919" y="8915.387">@requirements-analyst</text><text fill="#000000" font-family="'Arial, Helvetica, sans-serif'" font-size="175" lengthAdjust="spacing" textLength="2852.1387" x="3133.1919" y="9168.7859">/speckit.clarify (loop on ambiguity)</text><text fill="#000000" font-family="'Arial, Helvetica, sans-serif'" font-size="175" lengthAdjust="spacing" textLength="2257.3158" x="3133.1919" y="9422.1848">/speckit.research (optional)</text><rect fill="#F1F1F1" height="703.3989" rx="125" ry="125" style="stroke:#181818;stroke-width:6.25;" width="2445.6919" x="262.5" y="8740.7867"/><text fill="#000000" font-family="'Arial, Helvetica, sans-serif'" font-size="175" lengthAdjust="spacing" textLength="1995.6919" x="487.5" y="9168.7859">2. /speckit.requirements</text><path d="M2586.8434,9947.5845 L2586.8434,10186.784 L2336.8434,10236.784 L2586.8434,10286.784 L2586.8434,10525.9834 A0,0 0 0 0 2586.8434,10525.9834 L4561.3372,10525.9834 A0,0 0 0 0 4561.3372,10525.9834 L4561.3372,10072.5845 L4436.3372,9947.5845 L2586.8434,9947.5845 A0,0 0 0 0 2586.8434,9947.5845" fill="#FEFFDD" style="stroke:#181818;stroke-width:6.25;"/><path d="M4436.3372,9947.5845 L4436.3372,10072.5845 L4561.3372,10072.5845 L4436.3372,9947.5845" fill="#FEFFDD" style="stroke:#181818;stroke-width:6.25;"/><text fill="#000000" font-family="'Arial, Helvetica, sans-serif'" font-size="175" lengthAdjust="spacing" textLength="1511.9938" x="2761.8434" y="10313.0836">@system-designer</text><rect fill="#F1F1F1" height="703.3989" rx="125" ry="125" style="stroke:#181818;stroke-width:6.25;" width="1702.9949" x="633.8485" y="9885.0845"/><text fill="#000000" font-family="'Arial, Helvetica, sans-serif'" font-size="175" lengthAdjust="spacing" textLength="1252.9949" x="858.8485" y="10313.0836">3. /speckit.plan</text><path d="M2617.5558,10774.284 L2617.5558,11140.1829 L2367.5558,11190.1829 L2617.5558,11240.1829 L2617.5558,11606.0818 A0,0 0 0 0 2617.5558,11606.0818 L6048.3938,11606.0818 A0,0 0 0 0 6048.3938,11606.0818 L6048.3938,10899.284 L5923.3938,10774.284 L2617.5558,10774.284 A0,0 0 0 0 2617.5558,10774.284" fill="#FEFFDD" style="stroke:#181818;stroke-width:6.25;"/><path d="M5923.3938,10774.284 L5923.3938,10899.284 L6048.3938,10899.284 L5923.3938,10774.284" fill="#FEFFDD" style="stroke:#181818;stroke-width:6.25;"/><text fill="#000000" font-family="'Arial, Helvetica, sans-serif'" font-size="175" lengthAdjust="spacing" textLength="2221.616" x="2792.5558" y="11139.7831">/speckit.checklist (QA gate)</text><text fill="#000000" font-family="'Arial, Helvetica, sans-serif'" font-size="175" lengthAdjust="spacing" textLength="2968.338" x="2792.5558" y="11393.182">/speckit.analyze (consistency check)</text><rect fill="#F1F1F1" height="703.3989" rx="125" ry="125" style="stroke:#181818;stroke-width:6.25;" width="1764.4197" x="603.1361" y="10838.4834"/><text fill="#000000" font-family="'Arial, Helvetica, sans-serif'" font-size="175" lengthAdjust="spacing" textLength="1314.4197" x="828.1361" y="11266.4825">4. /speckit.tasks</text><path d="M2853.6298,11791.8823 L2853.6298,12157.7812 L2603.6298,12207.7812 L2853.6298,12257.7812 L2853.6298,12623.6801 A0,0 0 0 0 2853.6298,12623.6801 L4877.6483,12623.6801 A0,0 0 0 0 4877.6483,12623.6801 L4877.6483,11916.8823 L4752.6483,11791.8823 L2853.6298,11791.8823 A0,0 0 0 0 2853.6298,11791.8823" fill="#FEFFDD" style="stroke:#181818;stroke-width:6.25;"/><path d="M4752.6483,11791.8823 L4752.6483,11916.8823 L4877.6483,11916.8823 L4752.6483,11791.8823" fill="#FEFFDD" style="stroke:#181818;stroke-width:6.25;"/><text fill="#000000" font-family="'Arial, Helvetica, sans-serif'" font-size="175" lengthAdjust="spacing" textLength="1561.5185" x="3028.6298" y="12157.3814">@module-designer</text><text fill="#000000" font-family="'Arial, Helvetica, sans-serif'" font-size="175" lengthAdjust="spacing" textLength="1256.1449" x="3028.6298" y="12410.7803">@test-engineer</text><rect fill="#F1F1F1" height="703.3989" rx="125" ry="125" style="stroke:#181818;stroke-width:6.25;" width="2236.5677" x="367.0621" y="11856.0818"/><text fill="#000000" font-family="'Arial, Helvetica, sans-serif'" font-size="175" lengthAdjust="spacing" textLength="1786.5677" x="592.0621" y="12284.0809">5. /speckit.implement</text><path d="M2675.8306,12936.1801 L2675.8306,13175.3796 L2425.8306,13225.3796 L2675.8306,13275.3796 L2675.8306,13514.579 A0,0 0 0 0 2675.8306,13514.579 L4290.7008,13514.579 A0,0 0 0 0 4290.7008,13514.579 L4290.7008,13061.1801 L4165.7008,12936.1801 L2675.8306,12936.1801 A0,0 0 0 0 2675.8306,12936.1801" fill="#FEFFDD" style="stroke:#181818;stroke-width:6.25;"/><path d="M4165.7008,12936.1801 L4165.7008,13061.1801 L4290.7008,13061.1801 L4165.7008,12936.1801" fill="#FEFFDD" style="stroke:#181818;stroke-width:6.25;"/><text fill="#000000" font-family="'Arial, Helvetica, sans-serif'" font-size="175" lengthAdjust="spacing" textLength="1152.3703" x="2850.8306" y="13301.6792">@qa-engineer</text><rect fill="#F1F1F1" height="703.3989" rx="125" ry="125" style="stroke:#181818;stroke-width:6.25;" width="1880.9692" x="544.8613" y="12873.6801"/><text fill="#000000" font-family="'Arial, Helvetica, sans-serif'" font-size="175" lengthAdjust="spacing" textLength="1430.9692" x="769.8613" y="13301.6792">6. /speckit.review</text><ellipse cx="1485.3459" cy="14114.579" fill="none" rx="137.5" ry="137.5" style="stroke:#222222;stroke-width:12.5;"/><ellipse cx="1485.3459" cy="14114.579" fill="#222222" rx="75" ry="75" style="stroke:#222222;stroke-width:12.5;"/><line style="stroke:#181818;stroke-width:25;" x1="1485.3459" x2="1485.3459" y1="1906.7978" y2="2156.7978"/><polygon fill="#181818" points="1435.3459,2031.7978,1485.3459,2156.7978,1535.3459,2031.7978,1485.3459,2081.7978" style="stroke:#181818;stroke-width:12.5;"/><line style="stroke:#181818;stroke-width:25;" x1="1485.3459" x2="1485.3459" y1="2860.1967" y2="3110.1967"/><polygon fill="#181818" points="1435.3459,2985.1967,1485.3459,3110.1967,1535.3459,2985.1967,1485.3459,3035.1967" style="stroke:#181818;stroke-width:12.5;"/><line style="stroke:#181818;stroke-width:25;" x1="1485.3459" x2="1485.3459" y1="375" y2="1203.3989"/><polygon fill="#181818" points="1435.3459,1078.3989,1485.3459,1203.3989,1535.3459,1078.3989,1485.3459,1128.3989" style="stroke:#181818;stroke-width:12.5;"/><line style="stroke:#181818;stroke-width:25;" x1="1485.3459" x2="1485.3459" y1="5598.7923" y2="6039.6912"/><polygon fill="#181818" points="1435.3459,5914.6912,1485.3459,6039.6912,1535.3459,5914.6912,1485.3459,5964.6912" style="stroke:#181818;stroke-width:12.5;"/><line style="stroke:#181818;stroke-width:25;" x1="1485.3459" x2="1485.3459" y1="3813.5956" y2="4895.3934"/><polygon fill="#181818" points="1435.3459,4770.3934,1485.3459,4895.3934,1535.3459,4770.3934,1485.3459,4820.3934" style="stroke:#181818;stroke-width:12.5;"/><line style="stroke:#181818;stroke-width:25;" x1="1485.3459" x2="1485.3459" y1="8424.8878" y2="8740.7867"/><polygon fill="#181818" points="1435.3459,8615.7867,1485.3459,8740.7867,1535.3459,8615.7867,1485.3459,8665.7867" style="stroke:#181818;stroke-width:12.5;"/><line style="stroke:#181818;stroke-width:25;" x1="1485.3459" x2="1485.3459" y1="9444.1856" y2="9885.0845"/><polygon fill="#181818" points="1435.3459,9760.0845,1485.3459,9885.0845,1535.3459,9760.0845,1485.3459,9810.0845" style="stroke:#181818;stroke-width:12.5;"/><line style="stroke:#181818;stroke-width:25;" x1="1485.3459" x2="1485.3459" y1="10588.4834" y2="10838.4834"/><polygon fill="#181818" points="1435.3459,10713.4834,1485.3459,10838.4834,1535.3459,10713.4834,1485.3459,10763.4834" style="stroke:#181818;stroke-width:12.5;"/><line style="stroke:#181818;stroke-width:25;" x1="1485.3459" x2="1485.3459" y1="11541.8823" y2="11856.0818"/><polygon fill="#181818" points="1435.3459,11731.0818,1485.3459,11856.0818,1535.3459,11731.0818,1485.3459,11781.0818" style="stroke:#181818;stroke-width:12.5;"/><line style="stroke:#181818;stroke-width:25;" x1="1485.3459" x2="1485.3459" y1="12559.4807" y2="12873.6801"/><polygon fill="#181818" points="1435.3459,12748.6801,1485.3459,12873.6801,1535.3459,12748.6801,1485.3459,12798.6801" style="stroke:#181818;stroke-width:12.5;"/><line style="stroke:#181818;stroke-width:25;" x1="1485.3459" x2="1485.3459" y1="6743.0901" y2="7721.489"/><polygon fill="#181818" points="1435.3459,7596.489,1485.3459,7721.489,1535.3459,7596.489,1485.3459,7646.489" style="stroke:#181818;stroke-width:12.5;"/><line style="stroke:#181818;stroke-width:25;" x1="1485.3459" x2="1485.3459" y1="13577.079" y2="13977.079"/><polygon fill="#181818" points="1435.3459,13852.079,1485.3459,13977.079,1535.3459,13852.079,1485.3459,13902.079" style="stroke:#181818;stroke-width:12.5;"/><?plantuml-src TLCzRnD14EtzAqP60bkoy-K0aQD82OujYf2076eqkHkVHzxRFNRtx1WK2II4A2WfwEcfW8P_WmI4Vy7i6ITduxWvUTvylFTsnerOPsWn1JV4s4nO9p10vQZYhX1hSXrtZDLaOMkZ1CGPGsj38X4gWkqoGWFCbUyPxVlyWc3p1l0OKuBgWMLK3NX8QaoU8so0G-sQZYmFggN23ECu4DmfnGwiDPFJ8KSZJSx1LWbwO6nCTZNcniaXfwGT6zttKw6_h5eoZbYFJj4cvE7PcK8zgjo1ZabJr35qpodAlLH3Jva9_7Zr0Pu-EeA3oFEO_HGE6HDf8nLzaWAHrOQkzdQwvpnQtu1kdD0UpjAP7DIYMMTNRuXGwpaqTtlP45r0Br-_l_poQVtFns-_Fd_z-Uxjx-zlwWtfVltJnfFRmtZCpjWfO4BQExWDc9-pOfJGV0BKjD7DCsMYKR0JkHZQ5xL2pcHhXKnbBAGc9ZWvXje_5fee1kcVeuAOdMST1PRrGdvgj8c6riYBqdccE6AlfY4DpnJ5QvMIjrhwEieMjycAmI7Osf3Ku56bSkK3L1y71h3P5ZjzdbNXLdUds-tTXvSLWBRBAEB155Yptms1zH0PiL-Bn4DfKRpK8i82sBpWxtOh5ok6RRMXauiXQTZWsaaMC5JrCBlNtPdFlceuCpmC2Iy1bfEXhuI7aJXP324ZUpPBAu38aeIRHGJMvt_54QLc2RMec1yk9aWBLEi2aEnVcB4mVbQsMabBb1XBS4XZKYQJlVU5WxrMjpDJiRa6Lvq6GYEtLDYrLOfRUfwpfVG6cVjbl8bYrTJDaElNK6Z3EzMKCHa8FqpFECdbNkgBYLRM0sqqX9gPsxwakrKYbibjBX9gmxwJwPGsPT4u4Vz3pNQfngCRhL9npNKeNoLB3hKd1v38oonnB1I6pGWx9dca8pcnKBNCzMvfBgUPAYnQvQ3SMwwep5c2SjM-IJfXkJwxrFdUmlECcIR_-V0ShuilmcMPx2y0?></g></svg>